<svg width="48" height="48" viewBox="0 0 48 48" fill="none" xmlns="http://www.w3.org/2000/svg">
<path d="M10.8964 48V15.6145H0.607065V48H10.8964ZM5.75305 11.1901C9.34112 11.1901 11.5745 8.7033 11.5745 5.59559C11.5077 2.41781 9.34125 0 5.82114 0C2.30158 0 0 2.41785 0 5.59559C0 8.70345 2.23285 11.1901 5.68588 11.1901H5.75273H5.75305ZM16.5915 48H26.8808V29.9143C26.8808 28.9464 26.9476 27.9795 27.2194 27.2876C27.9632 25.3537 29.6562 23.3508 32.4985 23.3508C36.2218 23.3508 37.7113 26.3206 37.7113 30.6742V47.9998H48V29.4302C48 19.4827 42.9238 14.8542 36.154 14.8542C30.6034 14.8542 28.1663 18.1 26.8123 20.3107H26.881V15.6138H16.5917C16.7267 18.6527 16.5917 47.9993 16.5917 47.9993L16.5915 48Z" fill="#48B774"/>
</svg>
