<svg width="48" height="40" viewBox="0 0 48 40" fill="none" xmlns="http://www.w3.org/2000/svg">
<path d="M47.0235 6.28891C46.7504 5.08252 46.2165 3.98233 45.4751 3.09784C44.7337 2.21335 43.8106 1.57541 42.7977 1.24752C39.042 0.0200039 24.0166 2.16857e-05 24.0166 2.16857e-05C24.0166 2.16857e-05 8.99364 -0.0199617 5.2355 1.15332C4.22324 1.4963 3.30204 2.14326 2.56035 3.03209C1.81866 3.92092 1.28138 5.02177 1.0001 6.22896C0.00959716 10.6994 3.51386e-06 19.9715 3.51386e-06 19.9715C3.51386e-06 19.9715 -0.00958966 29.2892 0.973715 33.7139C1.52532 36.1604 3.14418 38.093 5.20192 38.7525C8.99604 39.98 23.9806 40 23.9806 40C23.9806 40 39.006 40.02 42.7618 38.8495C43.775 38.5222 44.699 37.8858 45.4422 37.0031C46.1855 36.1204 46.7223 35.0221 46.9996 33.8167C47.9925 29.3491 47.9996 20.0799 47.9996 20.0799C47.9996 20.0799 48.0476 10.7594 47.0235 6.28891V6.28891ZM19.2104 28.5612L19.2224 11.4331L31.7104 20.0114L19.2104 28.5612V28.5612Z" fill="#48B774"/>
</svg>
